<svg width="24.082031" height="60.037598" viewBox="0 0 24.082 60.0376" fill="none" xmlns="http://www.w3.org/2000/svg" xmlns:xlink="http://www.w3.org/1999/xlink">
	<desc>
			Created with Pixso.
	</desc>
	<defs/>
	<path id="Vector 3" d="M0.03 60L24.03 60L24.03 0L0.03 0L0.03 60Z" fill="#CB9B81" fill-opacity="1.000000" fill-rule="evenodd"/>
	<path id="Vector 3" d="M24.03 60L0.03 60L0.03 0L24.03 0L24.03 60ZM23.95 0.09L0.12 0.09L0.12 59.92L23.95 59.92L23.95 0.09Z" fill="#FFFFFF" fill-opacity="1.000000" fill-rule="evenodd"/>
	<path id="Vector 6" d="M11.99 60C16.16 53.49 20.05 46.33 24.03 31.67L24.03 0L0.03 0L0.03 60L11.99 60Z" fill="#DCA98C" fill-opacity="1.000000" fill-rule="evenodd"/>
	<path id="Vector 4" d="M0.03 60C5.7 54.33 18.28 34.52 24.03 0L0.03 0L0.03 60Z" fill="#E1AF93" fill-opacity="1.000000" fill-rule="evenodd"/>
	<path id="Vector 5" d="M0.03 42C3.51 35.54 11.87 14.99 14.03 0L0.03 0L0.03 42Z" fill="#DCA98C" fill-opacity="1.000000" fill-rule="evenodd"/>
	<path id="Vector 7" d="M0.03 19C3.12 10.47 3.22 9.18 5.03 0L0.03 0L0.03 19Z" fill="#CB9B81" fill-opacity="1.000000" fill-rule="evenodd"/>
	<path id="Vector 4" d="M0.03 60C5.7 54.33 18.28 34.52 24.03 0" stroke="#FFFFFF" stroke-opacity="1.000000" stroke-width="0.084668"/>
	<path id="Vector 7" d="M0.03 20C3.12 11.02 3.22 9.66 5.03 0" stroke="#FFFFFF" stroke-opacity="1.000000" stroke-width="0.084668"/>
	<path id="Vector 6" d="M12.03 60C16.19 53.57 20.07 46.49 24.03 32" stroke="#FFFFFF" stroke-opacity="1.000000" stroke-width="0.084668"/>
	<path id="Vector 5" d="M0.03 42C3.51 35.54 11.87 14.99 14.03 0" stroke="#FFFFFF" stroke-opacity="1.000000" stroke-width="0.084668"/>
</svg>
